<svg width="16" height="16" viewBox="0 0 16 16" fill="none" xmlns="http://www.w3.org/2000/svg">
<path fill-rule="evenodd" clip-rule="evenodd" d="M6.58336 10.1367C4.0207 10.1367 1.83203 10.5241 1.83203 12.0761C1.83203 13.6274 4.0067 14.0294 6.58336 14.0294C9.14603 14.0294 11.3347 13.6414 11.3347 12.0901C11.3347 10.5387 9.16003 10.1367 6.58336 10.1367Z" stroke="#808080" stroke-width="1.5" stroke-linecap="round" stroke-linejoin="round"/>
<path fill-rule="evenodd" clip-rule="evenodd" d="M6.5844 7.9227C8.27506 7.9227 9.62973 6.56736 9.62973 4.87736C9.62973 3.1867 8.27506 1.83203 6.5844 1.83203C4.8944 1.83203 3.53906 3.1867 3.53906 4.87736C3.53906 6.56736 4.8944 7.9227 6.5844 7.9227Z" stroke="#808080" stroke-width="1.5" stroke-linecap="round" stroke-linejoin="round"/>
<path d="M12.8021 5.77734V8.45068" stroke="#808080" stroke-width="1.5" stroke-linecap="round" stroke-linejoin="round"/>
<path d="M14.1642 7.11458H11.4375" stroke="#808080" stroke-width="1.5" stroke-linecap="round" stroke-linejoin="round"/>
</svg>
