<svg width="16" height="16" viewBox="0 0 16 16" fill="none" xmlns="http://www.w3.org/2000/svg">
<path d="M3.33203 6.66536H4.66536C5.9987 6.66536 6.66536 5.9987 6.66536 4.66536V3.33203C6.66536 1.9987 5.9987 1.33203 4.66536 1.33203H3.33203C1.9987 1.33203 1.33203 1.9987 1.33203 3.33203V4.66536C1.33203 5.9987 1.9987 6.66536 3.33203 6.66536Z" fill="white" stroke="white" stroke-miterlimit="10" stroke-linecap="round" stroke-linejoin="round"/>
<path d="M11.332 6.66536H12.6654C13.9987 6.66536 14.6654 5.9987 14.6654 4.66536V3.33203C14.6654 1.9987 13.9987 1.33203 12.6654 1.33203H11.332C9.9987 1.33203 9.33203 1.9987 9.33203 3.33203V4.66536C9.33203 5.9987 9.9987 6.66536 11.332 6.66536Z" stroke="white" stroke-miterlimit="10" stroke-linecap="round" stroke-linejoin="round"/>
<path d="M11.332 14.6654H12.6654C13.9987 14.6654 14.6654 13.9987 14.6654 12.6654V11.332C14.6654 9.9987 13.9987 9.33203 12.6654 9.33203H11.332C9.9987 9.33203 9.33203 9.9987 9.33203 11.332V12.6654C9.33203 13.9987 9.9987 14.6654 11.332 14.6654Z" fill="white" stroke="white" stroke-miterlimit="10" stroke-linecap="round" stroke-linejoin="round"/>
<path d="M3.33203 14.6654H4.66536C5.9987 14.6654 6.66536 13.9987 6.66536 12.6654V11.332C6.66536 9.9987 5.9987 9.33203 4.66536 9.33203H3.33203C1.9987 9.33203 1.33203 9.9987 1.33203 11.332V12.6654C1.33203 13.9987 1.9987 14.6654 3.33203 14.6654Z" fill="white" stroke="white" stroke-miterlimit="10" stroke-linecap="round" stroke-linejoin="round"/>
</svg>
