<svg width="15" height="14" viewBox="0 0 15 14" fill="none" xmlns="http://www.w3.org/2000/svg">
<path d="M13.1934 9.28797L9.46011 2.56797C8.95844 1.6638 8.26427 1.16797 7.50011 1.16797C6.73594 1.16797 6.04178 1.6638 5.54011 2.56797L1.80678 9.28797C1.33428 10.1455 1.28178 10.968 1.66094 11.6155C2.04011 12.263 2.78678 12.6188 3.76678 12.6188H11.2334C12.2134 12.6188 12.9601 12.263 13.3393 11.6155C13.7184 10.968 13.6659 10.1396 13.1934 9.28797ZM7.06261 5.2513C7.06261 5.01214 7.26094 4.8138 7.50011 4.8138C7.73927 4.8138 7.93761 5.01214 7.93761 5.2513V8.16797C7.93761 8.40714 7.73927 8.60547 7.50011 8.60547C7.26094 8.60547 7.06261 8.40714 7.06261 8.16797V5.2513ZM7.91427 10.3321C7.88511 10.3555 7.85594 10.3788 7.82677 10.4021C7.79177 10.4255 7.75677 10.443 7.72177 10.4546C7.68677 10.4721 7.65177 10.4838 7.61094 10.4896C7.57594 10.4955 7.53511 10.5013 7.50011 10.5013C7.46511 10.5013 7.42427 10.4955 7.38344 10.4896C7.34844 10.4838 7.31344 10.4721 7.27844 10.4546C7.24344 10.443 7.20844 10.4255 7.17344 10.4021C7.14427 10.3788 7.11511 10.3555 7.08594 10.3321C6.98094 10.2213 6.91677 10.0696 6.91677 9.91797C6.91677 9.7663 6.98094 9.61464 7.08594 9.5038C7.11511 9.48047 7.14427 9.45714 7.17344 9.4338C7.20844 9.41047 7.24344 9.39297 7.27844 9.3813C7.31344 9.3638 7.34844 9.35214 7.38344 9.3463C7.45927 9.3288 7.54094 9.3288 7.61094 9.3463C7.65177 9.35214 7.68677 9.3638 7.72177 9.3813C7.75677 9.39297 7.79177 9.41047 7.82677 9.4338C7.85594 9.45714 7.88511 9.48047 7.91427 9.5038C8.01927 9.61464 8.08344 9.7663 8.08344 9.91797C8.08344 10.0696 8.01927 10.2213 7.91427 10.3321Z" fill="white"/>
</svg>
