<svg width="16" height="16" viewBox="0 0 16 16" fill="none" xmlns="http://www.w3.org/2000/svg">
<path d="M11.7305 7.29021C12.7987 7.29021 13.6652 6.42426 13.6652 5.35604C13.6652 4.28782 12.7987 3.42188 11.7305 3.42188" stroke="#808080" stroke-width="1.5" stroke-linecap="round" stroke-linejoin="round"/>
<path d="M12.6211 9.39062C12.9401 9.41263 13.2573 9.45785 13.5695 9.52813C14.0034 9.61307 14.5253 9.7909 14.7111 10.1802C14.8296 10.4295 14.8296 10.7198 14.7111 10.9697C14.5259 11.359 14.0034 11.5362 13.5695 11.6255" stroke="#808080" stroke-width="1.5" stroke-linecap="round" stroke-linejoin="round"/>
<path d="M4.19259 7.29021C3.12437 7.29021 2.25781 6.42426 2.25781 5.35604C2.25781 4.28782 3.12437 3.42188 4.19259 3.42188" stroke="#808080" stroke-width="1.5" stroke-linecap="round" stroke-linejoin="round"/>
<path d="M3.30376 9.39062C2.98476 9.41263 2.6676 9.45785 2.35532 9.52813C1.92143 9.61307 1.39954 9.7909 1.21438 10.1802C1.09521 10.4295 1.09521 10.7198 1.21438 10.9697C1.39893 11.359 1.92143 11.5362 2.35532 11.6255" stroke="#808080" stroke-width="1.5" stroke-linecap="round" stroke-linejoin="round"/>
<path fill-rule="evenodd" clip-rule="evenodd" d="M7.95909 9.80859C10.1236 9.80859 11.9729 10.1361 11.9729 11.447C11.9729 12.7572 10.1359 13.097 7.95909 13.097C5.79392 13.097 3.94531 12.7694 3.94531 11.4586C3.94531 10.1478 5.78231 9.80859 7.95909 9.80859Z" stroke="#808080" stroke-width="1.5" stroke-linecap="round" stroke-linejoin="round"/>
<path fill-rule="evenodd" clip-rule="evenodd" d="M7.95889 7.93791C6.53133 7.93791 5.38672 6.7933 5.38672 5.36514C5.38672 3.93758 6.53133 2.79297 7.95889 2.79297C9.38644 2.79297 10.5311 3.93758 10.5311 5.36514C10.5311 6.7933 9.38644 7.93791 7.95889 7.93791Z" stroke="#808080" stroke-width="1.5" stroke-linecap="round" stroke-linejoin="round"/>
</svg>
